# xmcd
#
# Track frame offsets: 
#        150
#        15105
#        27587
#        41270
#        50295
#        65277
#        76125
#        85437
#        100275
#        115372
#        129307
#        142025
#        156165
#        176832
#        191865
#        205485
#        221387
#        242342
#        257085
#        271395
#
# Disc length: 3860 seconds
#
# Revision: 4
# Processed by: cddbd v1.5.2PL0 Copyright (c) Steve Scherf et al.
# Submitted via: ExactAudioCopyFreeDBPlugin 1.0
#
DISCID=150f1214
DTITLE=The Delfonics - La-La Means I Love You:  The Definitive Collect
DTITLE=ion
DYEAR=1997
DGENRE=Soul
TTITLE0=La-La Means I Love You
TTITLE1=I'm Sorry
TTITLE2=Break Your Promise
TTITLE3=Ready or Not Here I Come (Can't Hide from Love)
TTITLE4=Somebody Loves You
TTITLE5=Funny Feeling
TTITLE6=Loving Him
TTITLE7=You Got Yours and I'll Get Mine
TTITLE8=Didn't I (Blow Your Mind This Time)
TTITLE9=Trying to Make a Fool of Me
TTITLE10=When You Get Right Down to It
TTITLE11=Over and Over
TTITLE12=Delfonics Theme
TTITLE13=Hey! Love
TTITLE14=Walk Right Up to the Sun
TTITLE15=Tell Me This is a Dream
TTITLE16=Think it Over
TTITLE17=I Don't Want to Make You Wait
TTITLE18=I Told You So
TTITLE19=Lying to Myself
EXTD=YEAR: 1997
EXTT0=
EXTT1=
EXTT2=
EXTT3=
EXTT4=
EXTT5=
EXTT6=
EXTT7=
EXTT8=
EXTT9=
EXTT10=
EXTT11=
EXTT12=
EXTT13=
EXTT14=
EXTT15=
EXTT16=
EXTT17=
EXTT18=
EXTT19=
PLAYORDER=
